name Walk9.mot
datacolumns 19
datarows 17
range 1.82100000 1.83700000
endheader

                time	   L_ground_force_vx	   L_ground_force_vy	   L_ground_force_vz	   L_ground_force_px	   L_ground_force_py	   L_ground_force_pz	   R_ground_force_vx	   R_ground_force_vy	   R_ground_force_vz	   R_ground_force_px	   R_ground_force_py	   R_ground_force_pz	   L_ground_torque_x	   L_ground_torque_y	   L_ground_torque_z	   R_ground_torque_x	   R_ground_torque_y	   R_ground_torque_z	
          1.82100000	        -19.27030676	        432.29689380	        -36.27654537	          0.38902511	          0.00000000	          0.07625338	          0.00000000	          0.00000000	          0.00000000	          0.00000000	          0.00000000	          0.00000000	          0.00000000	          4.79210993	          0.00000000	          0.00000000	          0.00000000	          0.00000000	
          1.82200000	        -19.16964674	        431.37679510	        -36.02968909	          0.38997870	          0.00000000	          0.07626845	          0.00000000	          0.00000000	          0.00000000	          0.00000000	          0.00000000	          0.00000000	          0.00000000	          4.74496185	          0.00000000	          0.00000000	          0.00000000	          0.00000000	
          1.82300000	        -19.05927775	        430.38816786	        -35.80376732	          0.39087375	          0.00000000	          0.07621563	          0.00000000	          0.00000000	          0.00000000	          0.00000000	          0.00000000	          0.00000000	          0.00000000	          4.70085026	          0.00000000	          0.00000000	          0.00000000	          0.00000000	
          1.82400000	        -18.94675484	        429.37605783	        -35.59175129	          0.39166877	          0.00000000	          0.07608530	          0.00000000	          0.00000000	          0.00000000	          0.00000000	          0.00000000	          0.00000000	          0.00000000	          4.66367739	          0.00000000	          0.00000000	          0.00000000	          0.00000000	
          1.82500000	        -18.83644211	        428.38807236	        -35.38435620	          0.39231786	          0.00000000	          0.07591481	          0.00000000	          0.00000000	          0.00000000	          0.00000000	          0.00000000	          0.00000000	          0.00000000	          4.63157944	          0.00000000	          0.00000000	          0.00000000	          0.00000000	
          1.82600000	        -18.72383523	        427.45521479	        -35.17580153	          0.39280255	          0.00000000	          0.07576316	          0.00000000	          0.00000000	          0.00000000	          0.00000000	          0.00000000	          0.00000000	          0.00000000	          4.59639984	          0.00000000	          0.00000000	          0.00000000	          0.00000000	
          1.82700000	        -18.59896003	        426.61350230	        -34.95610705	          0.39315453	          0.00000000	          0.07568448	          0.00000000	          0.00000000	          0.00000000	          0.00000000	          0.00000000	          0.00000000	          0.00000000	          4.55070781	          0.00000000	          0.00000000	          0.00000000	          0.00000000	
          1.82800000	        -18.45248642	        425.91367716	        -34.71036251	          0.39344018	          0.00000000	          0.07570603	          0.00000000	          0.00000000	          0.00000000	          0.00000000	          0.00000000	          0.00000000	          0.00000000	          4.49583236	          0.00000000	          0.00000000	          0.00000000	          0.00000000	
          1.82900000	        -18.28074972	        425.37520000	        -34.43045172	          0.39375215	          0.00000000	          0.07579726	          0.00000000	          0.00000000	          0.00000000	          0.00000000	          0.00000000	          0.00000000	          0.00000000	          4.43799397	          0.00000000	          0.00000000	          0.00000000	          0.00000000	
          1.83000000	        -18.08768282	        424.94760700	        -34.12300185	          0.39418210	          0.00000000	          0.07587886	          0.00000000	          0.00000000	          0.00000000	          0.00000000	          0.00000000	          0.00000000	          0.00000000	          4.37847948	          0.00000000	          0.00000000	          0.00000000	          0.00000000	
          1.83100000	        -17.87773660	        424.54805314	        -33.80788971	          0.39476251	          0.00000000	          0.07588921	          0.00000000	          0.00000000	          0.00000000	          0.00000000	          0.00000000	          0.00000000	          0.00000000	          4.31341071	          0.00000000	          0.00000000	          0.00000000	          0.00000000	
          1.83200000	        -17.65297357	        424.14228625	        -33.50901039	          0.39544731	          0.00000000	          0.07583302	          0.00000000	          0.00000000	          0.00000000	          0.00000000	          0.00000000	          0.00000000	          0.00000000	          4.23995633	          0.00000000	          0.00000000	          0.00000000	          0.00000000	
          1.83300000	        -17.41746255	        423.77281856	        -33.24101554	          0.39615554	          0.00000000	          0.07576157	          0.00000000	          0.00000000	          0.00000000	          0.00000000	          0.00000000	          0.00000000	          0.00000000	          4.16035707	          0.00000000	          0.00000000	          0.00000000	          0.00000000	
          1.83400000	        -17.17314039	        423.48643561	        -33.00543016	          0.39681995	          0.00000000	          0.07571553	          0.00000000	          0.00000000	          0.00000000	          0.00000000	          0.00000000	          0.00000000	          0.00000000	          4.08137500	          0.00000000	          0.00000000	          0.00000000	          0.00000000	
          1.83500000	        -16.91684314	        423.26538295	        -32.79939092	          0.39740402	          0.00000000	          0.07569558	          0.00000000	          0.00000000	          0.00000000	          0.00000000	          0.00000000	          0.00000000	          0.00000000	          4.00920548	          0.00000000	          0.00000000	          0.00000000	          0.00000000	
          1.83600000	        -16.64619683	        423.05416599	        -32.62179767	          0.39790084	          0.00000000	          0.07568014	          0.00000000	          0.00000000	          0.00000000	          0.00000000	          0.00000000	          0.00000000	          0.00000000	          3.94692431	          0.00000000	          0.00000000	          0.00000000	          0.00000000	
          1.83700000	        -16.36252300	        422.81301411	        -32.46678565	          0.39832082	          0.00000000	          0.07564872	          0.00000000	          0.00000000	          0.00000000	          0.00000000	          0.00000000	          0.00000000	          0.00000000	          3.89772829	          0.00000000	          0.00000000	          0.00000000	          0.00000000	
